<svg width="25" height="25" viewBox="0 0 25 25" fill="none" xmlns="http://www.w3.org/2000/svg">
<path d="M11.3953 2.01172C6.22998 2.01172 2.02235 6.21935 2.02235 11.3847C2.02235 16.55 6.22998 20.7659 11.3953 20.7659C13.6016 20.7659 15.6307 19.9927 17.2343 18.7089L21.1386 22.6111C21.3356 22.7999 21.5987 22.9042 21.8717 22.9014C22.1446 22.8986 22.4055 22.789 22.5987 22.5962C22.7918 22.4033 22.9017 22.1426 22.9049 21.8696C22.908 21.5967 22.8042 21.3334 22.6156 21.1361L18.7114 17.2319C19.9962 15.6258 20.7703 13.5935 20.7703 11.3847C20.7703 6.21935 16.5606 2.01172 11.3953 2.01172ZM11.3953 4.09508C15.4347 4.09508 18.6849 7.34529 18.6849 11.3847C18.6849 15.4241 15.4347 18.6825 11.3953 18.6825C7.3559 18.6825 4.10568 15.4241 4.10568 11.3847C4.10568 7.34529 7.3559 4.09508 11.3953 4.09508Z" fill="black"/>
</svg>
