<svg width="25" height="25" viewBox="0 0 25 25" fill="none" xmlns="http://www.w3.org/2000/svg">
<path d="M21.9141 0H5.43945C3.73789 0 2.35352 1.38438 2.35352 3.08594V21.9141C2.35352 23.6156 3.73784 25 5.4394 25H21.914C22.3185 25 22.6464 24.672 22.6464 24.2676V19.5605V0.732422C22.6465 0.32793 22.3186 0 21.9141 0ZM7.79297 4.70698H17.2071C17.6116 4.70698 17.9395 5.03491 17.9395 5.4394C17.9395 5.8439 17.6116 6.17183 17.2071 6.17183H7.79297C7.38848 6.17183 7.06055 5.8439 7.06055 5.4394C7.06055 5.03491 7.38843 4.70698 7.79297 4.70698ZM5.4395 23.5352C4.54561 23.5352 3.81841 22.8079 3.81841 21.9141C3.81841 21.8862 3.81914 21.8583 3.82051 21.8308C3.86401 20.9754 4.57358 20.293 5.43945 20.293H21.1816V23.5352H5.4395Z" fill="#333333"/>
</svg>
