<svg width="52" height="52" viewBox="0 0 52 52" fill="none" xmlns="http://www.w3.org/2000/svg">
<path d="M23.4514 33.7636L16.6448 28.9894C15.1124 27.8475 12.9447 28.1639 11.8028 29.6962C10.661 31.2286 10.9773 33.3964 12.5097 34.5382C12.5097 34.5382 14.4602 36.2255 15.244 37.1978C18.3012 40.9894 25.9696 49.8836 35.9455 45.261C39.3422 43.6869 42.1372 41.5468 43.3874 38.2892C44.6381 35.0316 44.689 31.2817 43.1653 27.8643L38.7832 18.2524L38.5373 17.7113L35.5717 11.0596C34.9239 9.60635 33.2203 8.95365 31.767 9.60148C30.3137 10.2493 29.661 11.9529 30.3089 13.4061L34.3437 22.7342L28.1075 8.74565C27.496 7.3736 25.8878 6.75773 24.5157 7.36927L24.2211 7.5009C22.849 8.11244 22.2332 9.72065 22.8447 11.0927L28.5512 23.8684L21.4369 7.91256C20.8254 6.54052 19.2172 5.92465 17.8451 6.53619L17.5505 6.66781C16.1784 7.27935 15.5625 8.88756 16.1741 10.2596L17.4827 13.1944L23.0581 25.5936L17.9172 14.0621C17.3056 12.6901 15.6974 12.0742 14.3254 12.6857L14.0307 12.8174C12.6587 13.4289 12.0428 15.0371 12.6543 16.4091L19.0119 30.668L23.4514 33.7636Z" fill="#EFCBBD"/>
<path d="M30.3028 47.6042C27.6844 47.6042 25.0649 46.8274 22.4676 45.2745C18.9706 43.1842 16.3387 40.2077 14.4363 37.8482C13.8519 37.1235 12.4024 35.8181 11.8569 35.3447C10.9123 34.6275 10.2986 33.588 10.1268 32.4126C9.95351 31.2242 10.2531 30.0385 10.9713 29.0759C12.2865 27.3107 14.659 26.7879 16.5662 27.7294L11.7074 16.8316C10.8641 14.939 11.7172 12.7138 13.6092 11.8699L13.9044 11.7383C14.4315 11.5032 14.9926 11.3916 15.5538 11.4122L15.2277 10.6809C14.3843 8.78836 15.2369 6.5632 17.129 5.71928L17.4242 5.58765C19.3162 4.74428 21.5419 5.59686 22.3853 7.4889L22.4319 7.59345C22.7894 7.15795 23.2509 6.79666 23.7996 6.55182L24.0948 6.4202C25.9868 5.57682 28.2126 6.42941 29.0559 8.32145L29.7726 9.92803C30.1631 9.38907 30.6956 8.9422 31.3461 8.6524C32.3021 8.22611 33.3671 8.19795 34.3442 8.57224C35.3214 8.94653 36.0943 9.67941 36.5206 10.6354L39.7289 17.8217L44.1099 27.4314C45.69 30.975 45.7766 34.9595 44.3569 38.658C43.1485 41.8062 40.5398 44.2729 36.3825 46.1991C34.3632 47.1367 32.3336 47.6042 30.3028 47.6042ZM14.5728 29.3452C13.8324 29.3452 13.1066 29.6821 12.6342 30.3158C12.2475 30.8347 12.0861 31.4728 12.1798 32.1131C12.2735 32.7533 12.6104 33.3188 13.1293 33.7056C13.1493 33.7202 13.1694 33.7364 13.1883 33.7527C13.2707 33.8242 15.2191 35.5131 16.0516 36.5461C18.4891 39.5691 25.9056 48.7688 35.5093 44.319C39.1531 42.6306 41.4135 40.5365 42.4194 37.9165C43.6403 34.7358 43.5688 31.3152 42.2184 28.2862L37.5937 18.1402L34.6248 11.4821C34.4244 11.0325 34.0609 10.6874 33.6011 10.5114C33.1412 10.3354 32.6401 10.3489 32.19 10.5493C31.2616 10.9632 30.8429 12.0552 31.2573 12.9841L35.297 22.3224C35.5234 22.8462 35.2846 23.4545 34.7624 23.6842C34.2397 23.9128 33.6298 23.6782 33.3979 23.1566L27.1601 9.16807C26.782 8.3209 25.7853 7.93903 24.9382 8.31657L24.643 8.4482C23.85 8.8019 23.4643 9.69891 23.7286 10.5076L29.4979 23.4469C29.7308 23.9702 29.4963 24.5834 28.9731 24.8168C28.4498 25.0514 27.8366 24.8157 27.6032 24.2925L27.5999 24.2854L21.8973 11.5151C21.8615 11.4349 21.829 11.3542 21.7992 11.2735L20.4889 8.33499C20.1114 7.48836 19.1142 7.10595 18.2676 7.48349L17.9723 7.61511C17.1252 7.99265 16.7433 8.98932 17.1208 9.83649L18.5953 13.1407C18.696 13.2988 18.7859 13.4651 18.8639 13.6395L24.0049 25.1705C24.2378 25.6932 24.0038 26.3059 23.4811 26.5399C22.9595 26.7733 22.3458 26.5404 22.1112 26.0182L16.7791 14.1601C16.5911 13.9077 16.3354 13.7137 16.0343 13.5984C15.6145 13.4386 15.1578 13.4499 14.7473 13.633L14.4521 13.7647C13.6049 14.1422 13.223 15.1389 13.6006 15.986L19.8303 29.9572L24.0466 32.9142C24.5151 33.243 24.6289 33.8892 24.3012 34.3583C23.9729 34.8274 23.3273 34.9422 22.8576 34.6145L18.4181 31.5189C18.3688 31.4842 18.3228 31.4457 18.2806 31.4035L16.0483 29.8381C15.6015 29.5049 15.0836 29.3452 14.5728 29.3452Z" fill="#16191E"/>
<path d="M42.2195 5.43359C45.0827 7.95668 47.3534 11.1368 48.7953 14.7383L42.2195 5.43359Z" fill="#768DFF"/>
<path d="M48.796 15.7763C48.3843 15.7763 47.9948 15.5298 47.8323 15.1241C46.4717 11.7257 44.2936 8.64413 41.5333 6.21204C41.1032 5.83342 41.062 5.178 41.4407 4.74792C41.8193 4.31783 42.4747 4.27721 42.9048 4.65529C45.9073 7.30079 48.277 10.6543 49.758 14.3528C49.9708 14.8847 49.7125 15.4886 49.1805 15.7015C49.0549 15.7524 48.9243 15.7763 48.796 15.7763Z" fill="#16191E"/>
<path d="M3.57555 27.5122C2.79663 23.0803 3.25921 18.7172 4.71359 14.7798L3.57555 27.5122Z" fill="#768DFF"/>
<path d="M3.57439 28.5493C3.08039 28.5493 2.64218 28.1945 2.55389 27.6913C1.7701 23.2323 2.18068 18.6433 3.74014 14.4199C3.93893 13.8825 4.53585 13.609 5.07264 13.8062C5.60997 14.005 5.88514 14.6013 5.68635 15.1387C4.25364 19.0181 3.87718 23.2344 4.59706 27.3321C4.69618 27.8965 4.31918 28.4344 3.75477 28.5335C3.69464 28.5438 3.63397 28.5493 3.57439 28.5493Z" fill="#16191E"/>
</svg>
